<svg width="400" height="48" viewBox="0 0 400 48" fill="none" xmlns="http://www.w3.org/2000/svg">
<g id="Group 92">
<g id="btn">
<rect id="Rectangle 98" width="400" height="48" rx="4" fill="#FEE500"/>
<path id="&#234;&#176;&#128;&#236;&#158;&#133;&#237;&#149;&#152;&#234;&#184;&#176;" d="M131.916 19.176H133.548C133.548 23.528 132.284 27.352 126.956 30.024L126.044 28.744C130.636 26.456 131.916 23.4 131.916 19.368V19.176ZM126.892 19.176H132.908V20.52H126.892V19.176ZM131.82 22.776V24.072L126.38 24.6L126.14 23.144L131.82 22.776ZM135.66 17.688H137.34V32.312H135.66V17.688ZM136.892 23.48H139.532V24.856H136.892V23.48ZM146.301 19.176H147.933C147.933 23.528 146.669 27.352 141.341 30.024L140.429 28.744C145.021 26.456 146.301 23.4 146.301 19.368V19.176ZM141.277 19.176H147.293V20.52H141.277V19.176ZM146.205 22.776V24.072L140.765 24.6L140.525 23.144L146.205 22.776ZM150.045 17.688H151.725V32.312H150.045V17.688ZM151.277 23.48H153.917V24.856H151.277V23.48ZM160.543 25.944H162.207V29.448H160.543V25.944ZM161.375 18.568C164.479 18.568 166.751 20.12 166.751 22.488C166.751 24.872 164.479 26.408 161.375 26.408C158.287 26.408 155.999 24.872 155.999 22.488C155.999 20.12 158.287 18.568 161.375 18.568ZM161.375 19.896C159.199 19.896 157.631 20.904 157.631 22.488C157.631 24.088 159.199 25.08 161.375 25.08C163.567 25.08 165.119 24.088 165.119 22.488C165.119 20.904 163.567 19.896 161.375 19.896ZM154.783 29.16H168.031V30.536H154.783V29.16ZM174.816 21.672H177.936V23.016H174.816V21.672ZM174.72 25.336H177.888V26.68H174.72V25.336ZM180.048 17.704H181.664V32.328H180.048V17.704ZM177.088 18.056H178.656V31.624H177.088V18.056ZM173.808 19.496H175.424C175.424 23.464 174.016 26.856 170.016 29.224L169.056 28.04C172.432 26.008 173.808 23.304 173.808 19.816V19.496ZM169.792 19.496H174.416V20.856H169.792V19.496ZM191.41 21.384H194.466V22.76H191.41V21.384ZM193.986 17.704H195.666V26.408H193.986V17.704ZM190.786 26.792C193.842 26.792 195.714 27.832 195.714 29.56C195.714 31.32 193.842 32.328 190.786 32.328C187.73 32.328 185.858 31.32 185.858 29.56C185.858 27.832 187.73 26.792 190.786 26.792ZM190.786 28.088C188.722 28.088 187.522 28.6 187.522 29.56C187.522 30.52 188.722 31.032 190.786 31.032C192.866 31.032 194.05 30.52 194.05 29.56C194.05 28.6 192.866 28.088 190.786 28.088ZM187.122 19.176H188.482V20.248C188.482 22.984 186.994 25.4 184.402 26.328L183.538 25C185.826 24.2 187.122 22.248 187.122 20.248V19.176ZM187.458 19.176H188.802V20.232C188.802 22.056 190.05 23.864 192.242 24.616L191.41 25.944C188.882 25.064 187.458 22.76 187.458 20.232V19.176ZM184.018 18.696H191.858V20.04H184.018V18.696ZM204.531 18.552C207.587 18.552 209.907 20.184 209.907 22.664C209.907 25.16 207.587 26.792 204.531 26.792C201.491 26.792 199.155 25.16 199.155 22.664C199.155 20.184 201.491 18.552 204.531 18.552ZM204.531 19.912C202.371 19.912 200.787 20.984 200.787 22.664C200.787 24.328 202.371 25.416 204.531 25.416C206.707 25.416 208.291 24.328 208.291 22.664C208.291 20.984 206.707 19.912 204.531 19.912ZM197.939 29.08H211.187V30.472H197.939V29.08ZM212.325 29.24H225.573V30.616H212.325V29.24ZM218.085 26.264H219.749V29.8H218.085V26.264ZM213.877 18.728H223.989V23.352H215.573V26.072H213.909V22.024H222.325V20.072H213.877V18.728ZM213.909 25.384H224.325V26.744H213.909V25.384ZM229.97 29.24H243.218V30.616H229.97V29.24ZM235.73 26.264H237.394V29.8H235.73V26.264ZM231.522 18.728H241.634V23.352H233.218V26.072H231.554V22.024H239.97V20.072H231.522V18.728ZM231.554 25.384H241.97V26.744H231.554V25.384ZM245.748 19.16H255.092V20.504H245.748V19.16ZM244.356 28.92H257.572V30.296H244.356V28.92ZM254.196 19.16H255.86V20.744C255.86 22.696 255.86 24.744 255.316 27.832L253.636 27.672C254.196 24.776 254.196 22.632 254.196 20.744V19.16ZM269.109 17.72H270.789V28.312H269.109V17.72ZM261.237 30.68H271.205V32.04H261.237V30.68ZM261.237 27.24H262.917V31.192H261.237V27.24ZM262.901 18.696C265.109 18.696 266.773 20.2 266.773 22.344C266.773 24.456 265.109 25.992 262.901 25.992C260.693 25.992 259.013 24.456 259.013 22.344C259.013 20.2 260.693 18.696 262.901 18.696ZM262.901 20.136C261.621 20.136 260.645 21 260.645 22.344C260.645 23.656 261.621 24.52 262.901 24.52C264.181 24.52 265.141 23.656 265.141 22.344C265.141 21 264.181 20.136 262.901 20.136Z" fill="#41231F"/>
</g>
<path id="Vector" d="M27.9977 13C21.3688 13 16 17.2268 16 22.4415C16 25.757 18.1731 28.6711 21.4784 30.3582L20.5653 35L25.7379 31.716C26.4933 31.8296 27.2564 31.8869 28.0205 31.8874C34.6494 31.8874 40.0183 27.6561 40.0183 22.4415C40.0183 17.2268 34.6266 13 27.9977 13Z" fill="#41231F"/>
</g>
</svg>
