<svg width="80" height="98" viewBox="0 0 80 98" fill="none" xmlns="http://www.w3.org/2000/svg">
<path d="M58.2413 95.8859C63.7945 95.8859 68.2962 92.4073 68.2962 88.1162C68.2962 83.8251 63.7945 80.3464 58.2413 80.3464C52.6882 80.3464 48.1865 83.8251 48.1865 88.1162C48.1865 92.4073 52.6882 95.8859 58.2413 95.8859Z" fill="#E0B3EC" stroke="#CA97DB" stroke-width="2" stroke-linecap="round" stroke-linejoin="round"/>
<path d="M26.4699 96.4999C32.023 96.4999 36.5247 93.0213 36.5247 88.7302C36.5247 84.4391 32.023 80.9604 26.4699 80.9604C20.9167 80.9604 16.415 84.4391 16.415 88.7302C16.415 93.0213 20.9167 96.4999 26.4699 96.4999Z" fill="#E0B3EC" stroke="#CA97DB" stroke-width="2" stroke-linecap="round" stroke-linejoin="round"/>
<path d="M40 89.4009C61.5391 89.4009 79 72.1131 79 50.7874C79 29.4617 61.5391 12.1738 40 12.1738C18.4609 12.1738 1 29.4617 1 50.7874C1 72.1131 18.4609 89.4009 40 89.4009Z" fill="#E0B3EC" stroke="#333333" stroke-width="2" stroke-linecap="round" stroke-linejoin="round"/>
<path d="M24.6414 71.8319L31.8744 66.7972C33.1335 65.938 34.0156 64.6291 34.3396 63.1394C34.6636 61.6498 34.4047 60.0926 33.6162 58.788C33.2308 58.1588 32.7212 57.6149 32.1185 57.1894C31.5157 56.7639 30.8326 56.4659 30.1108 56.3134C29.3889 56.1609 28.6436 56.1573 27.9203 56.3027C27.1971 56.4481 26.511 56.7395 25.9042 57.1591L16.4111 63.3" fill="#E0B3EC"/>
<path d="M24.6414 71.8319L31.8744 66.7972C33.1335 65.938 34.0156 64.6291 34.3396 63.1394C34.6636 61.6498 34.4047 60.0926 33.6162 58.788C33.2308 58.1588 32.7212 57.6149 32.1185 57.1894C31.5157 56.7639 30.8326 56.4659 30.1108 56.3134C29.3889 56.1609 28.6436 56.1573 27.9203 56.3027C27.1971 56.4481 26.511 56.7395 25.9042 57.1591L16.4111 63.3" stroke="#CA97DB" stroke-width="2" stroke-linecap="round" stroke-linejoin="round"/>
<path d="M56.8868 71.8319L49.6537 66.7972C48.3938 65.9387 47.5109 64.6297 47.1869 63.1398C46.8629 61.6498 47.1223 60.0923 47.9119 58.788C48.2973 58.1588 48.8069 57.6149 49.4097 57.1894C50.0124 56.7639 50.6955 56.4659 51.4174 56.3134C52.1392 56.1609 52.8845 56.1573 53.6078 56.3027C54.3311 56.4481 55.0171 56.7395 55.6239 57.1591L65.117 63.3" fill="#E0B3EC"/>
<path d="M56.8868 71.8319L49.6537 66.7972C48.3938 65.9387 47.5109 64.6297 47.1869 63.1398C46.8629 61.6498 47.1223 60.0923 47.9119 58.788C48.2973 58.1588 48.8069 57.6149 49.4097 57.1894C50.0124 56.7639 50.6955 56.4659 51.4174 56.3134C52.1392 56.1609 52.8845 56.1573 53.6078 56.3027C54.3311 56.4481 55.0171 56.7395 55.6239 57.1591L65.117 63.3" stroke="#CA97DB" stroke-width="2" stroke-linecap="round" stroke-linejoin="round"/>
<path d="M40 89.4009C61.5391 89.4009 79 72.1131 79 50.7874C79 29.4617 61.5391 12.1738 40 12.1738C18.4609 12.1738 1 29.4617 1 50.7874C1 72.1131 18.4609 89.4009 40 89.4009Z" stroke="#CA97DB" stroke-width="2" stroke-linecap="round" stroke-linejoin="round"/>
<path d="M52.0186 1.30318C51.9669 1.20236 51.8858 1.11968 51.786 1.06615C51.6861 1.01262 51.5723 0.990782 51.4598 1.00355C51.3472 1.01632 51.2412 1.0631 51.1559 1.13763C51.0706 1.21217 51.01 1.31094 50.9822 1.42078C50.5468 3.29353 48.8833 6.28994 42.8434 6.37704C34.0253 6.5077 29.0654 7.91443 29.1525 13.8376C29.2004 16.7991 31.0947 18.5761 32.9802 19.6126C34.9988 20.6867 37.2999 21.111 39.5688 20.8277C42.617 20.4837 47.8425 18.9637 50.1244 14.848C50.1244 14.848 55.019 7.24808 52.0186 1.30318Z" fill="#E0B3EC" stroke="#CA97DB" stroke-width="2" stroke-linecap="round" stroke-linejoin="round"/>
<path d="M36.2031 43.7974C36.2031 41.4666 34.5089 39.5771 32.4189 39.5771C30.329 39.5771 28.6348 41.4666 28.6348 43.7974C28.6348 46.1281 30.329 48.0176 32.4189 48.0176C34.5089 48.0176 36.2031 46.1281 36.2031 43.7974Z" fill="#333333"/>
<path d="M35.2694 43.3882C35.272 42.7292 34.7965 42.1931 34.2073 42.1907C33.6181 42.1884 33.1383 42.7206 33.1356 43.3796C33.133 44.0386 33.6085 44.5747 34.1977 44.577C34.787 44.5794 35.2667 44.0471 35.2694 43.3882Z" fill="white"/>
<path d="M51.719 44.6408C51.7284 42.31 50.0417 40.4138 47.9518 40.4054C45.8619 40.397 44.1601 42.2796 44.1507 44.6104C44.1414 46.9411 45.828 48.8374 47.9179 48.8458C50.0078 48.8541 51.7097 46.9715 51.719 44.6408Z" fill="#333333"/>
<path d="M50.4403 43.7468C50.4429 43.0878 49.9674 42.5517 49.3782 42.5494C48.789 42.547 48.3092 43.0793 48.3065 43.7382C48.3039 44.3972 48.7794 44.9333 49.3686 44.9357C49.9579 44.938 50.4376 44.4058 50.4403 43.7468Z" fill="white"/>
<path d="M42.5564 48.4619C42.4674 48.8277 42.2579 49.1529 41.9617 49.3851C41.6655 49.6174 41.2998 49.7432 40.9234 49.7423H39.8826C39.5083 49.7385 39.1459 49.6102 38.8525 49.3775C38.5592 49.1449 38.3517 48.8212 38.2627 48.4575C37.4256 48.9313 36.7689 49.6689 36.3951 50.5552C36.0213 51.4415 35.9514 52.4267 36.1963 53.357C36.4412 54.2872 36.9872 55.1102 37.749 55.6975C38.5108 56.2847 39.4455 56.6032 40.4074 56.6032C41.3692 56.6032 42.3039 56.2847 43.0657 55.6975C43.8275 55.1102 44.3735 54.2872 44.6184 53.357C44.8634 52.4267 44.7934 51.4415 44.4196 50.5552C44.0458 49.6689 43.3891 48.9313 42.552 48.4575L42.5564 48.4619Z" fill="#4A2F54"/>
<path d="M39.8826 49.7376H40.919C41.2954 49.7385 41.6612 49.6127 41.9574 49.3804C42.2536 49.1482 42.463 48.823 42.552 48.4573C41.8978 48.0871 41.159 47.8926 40.4073 47.8926C39.6557 47.8926 38.9169 48.0871 38.2627 48.4573C38.3525 48.8201 38.5604 49.1428 38.8536 49.3746C39.1469 49.6063 39.5089 49.734 39.8826 49.7376Z" fill="white"/>
<path d="M35.8194 36.9201C33.5666 36.4132 31.2063 36.7428 29.1786 37.8476C29.0734 37.9086 28.949 37.9276 28.8304 37.901C28.7117 37.8743 28.6075 37.804 28.5384 37.7039C28.4906 37.6161 28.4744 37.5145 28.4927 37.4161C28.5109 37.3178 28.5624 37.2287 28.6386 37.1639C29.5811 36.3082 30.755 35.7493 32.0134 35.5571C33.3663 35.3329 34.7552 35.5069 36.011 36.0578C36.077 36.0787 36.1384 36.1123 36.1915 36.1568C36.2445 36.2014 36.2883 36.256 36.3203 36.3174C36.3522 36.3789 36.3717 36.4461 36.3777 36.5151C36.3836 36.5842 36.3759 36.6537 36.355 36.7197C36.2991 36.8063 36.2168 36.8725 36.1203 36.9086C36.0239 36.9447 35.9183 36.9487 35.8194 36.9201Z" fill="#333333"/>
<path d="M45.1081 36.9201C47.361 36.4132 49.7212 36.7428 51.7489 37.8476C51.8542 37.9086 51.9785 37.9276 52.0971 37.901C52.2158 37.8743 52.32 37.804 52.3891 37.7039C52.4369 37.6161 52.4531 37.5145 52.4348 37.4161C52.4166 37.3178 52.3651 37.2287 52.2889 37.1639C51.3464 36.3082 50.1725 35.7493 48.9141 35.5571C47.5612 35.3329 46.1723 35.5069 44.9165 36.0578C44.8504 36.0787 44.7891 36.1123 44.736 36.1568C44.683 36.2014 44.6392 36.256 44.6072 36.3174C44.5753 36.3789 44.5558 36.4461 44.5498 36.5151C44.5438 36.5842 44.5516 36.6537 44.5725 36.7197C44.6284 36.8063 44.7107 36.8725 44.8072 36.9086C44.9036 36.9447 45.0092 36.9487 45.1081 36.9201Z" fill="#333333"/>
</svg>
