<svg width="24" height="24" viewBox="0 0 24 24" fill="none" xmlns="http://www.w3.org/2000/svg">
<path d="M23.6252 0.376493C23.4499 0.201243 23.2277 0.0803951 22.9853 0.0284982C22.743 -0.0233986 22.4908 -0.00413191 22.2591 0.0839789L0.828473 8.19563H0.824187C0.577089 8.29067 0.365353 8.45967 0.217897 8.67955C0.0704411 8.89944 -0.00554567 9.15948 0.000315242 9.42417C0.00617616 9.68885 0.093599 9.94528 0.250644 10.1584C0.407688 10.3716 0.626697 10.531 0.877759 10.615L0.899724 10.622L8.25523 13.763C8.3987 13.8066 8.55108 13.8118 8.69716 13.778C8.84325 13.7443 8.97792 13.6728 9.08775 13.5707L20.893 2.57035C20.9282 2.53517 20.9699 2.50727 21.0159 2.48823C21.0618 2.46919 21.1111 2.4594 21.1609 2.4594C21.2106 2.4594 21.2599 2.46919 21.3058 2.48823C21.3518 2.50727 21.3935 2.53517 21.4287 2.57035C21.4639 2.60553 21.4918 2.64729 21.5108 2.69325C21.5299 2.73921 21.5397 2.78847 21.5397 2.83822C21.5397 2.88797 21.5299 2.93723 21.5108 2.98319C21.4918 3.02915 21.4639 3.07091 21.4287 3.10609L10.4281 14.9063C10.3261 15.0161 10.2546 15.1508 10.2208 15.2969C10.1871 15.443 10.1923 15.5954 10.2358 15.7389L13.3778 23.0989C13.3811 23.1096 13.3843 23.1192 13.388 23.1294C13.5594 23.626 13.9934 23.9764 14.5179 24H14.5714C14.8362 24.0015 15.0953 23.9233 15.3151 23.7756C15.5348 23.6279 15.705 23.4175 15.8036 23.1717L23.9139 1.74638C24.0033 1.51456 24.0236 1.2618 23.9724 1.01869C23.9211 0.775578 23.8005 0.55252 23.6252 0.376493Z" fill="#FF626F"/>
</svg>
